#!OML:ASF Y:\EmotionMaleHayes\Project 1\Capture day 1\Session 1\Male1.ASF
:FULLY-SPECIFIED
:DEGREES
702
root -0.615855 17.0079 -18.1227 -207.623 105.567 -203.858
lowerback 4.01128 1.89414 4.71875
upperback 0.119072 2.77271 0.875223
thorax -1.94632 1.3492 -1.89338
lowerneck -19.7602 -5.44127 -0.657655
upperneck 32.7935 -10.1589 8.17754
head 15.3636 -2.91117 1.69608
rclavicle 3.06874e-014 3.85642e-014
rhumerus -32.676 16.1013 -85.6161
rradius 63.8824
rwrist -0.379449
rhand -16.6786 -26.12
rfingers 7.12502
rthumb 9.54549 -55.8838
lclavicle 3.06874e-014 3.85642e-014
lhumerus -59.8571 20.9708 47.9521
lradius 16.7197
lwrist -31.1304
lhand -18.3167 -21.7085
lfingers 7.12502
lthumb 7.9647 8.12147
rfemur 13.9204 -4.86726 27.2409
rtibia 8.31999
rfoot -18.4838 7.97767
rtoes 29.1301
lfemur -13.6045 -2.59956 -4.53877
ltibia 40.244
lfoot -17.731 12.355
ltoes -8.50354
703
root -0.52464 16.9991 -18.1266 -207.076 106.159 -203.347
lowerback 4.09427 1.93089 4.86117
upperback 0.188392 2.8303 0.840225
thorax -1.90897 1.3786 -2.01312
lowerneck -19.6263 -5.32445 -0.808219
upperneck 32.5555 -10.0367 8.54626
head 15.2532 -2.84392 1.89676
rclavicle -2.20278e-014 1.15295e-014
rhumerus -32.2213 16.1534 -85.5555
rradius 64.396
rwrist -1.22969
rhand -17.1315 -26.2569
rfingers 7.12502
rthumb 9.10849 -56.0402
lclavicle -2.20278e-014 1.15295e-014
lhumerus -59.8065 21.1098 48.5965
lradius 16.9861
lwrist -30.5323
lhand -18.4116 -21.9582
lfingers 7.12502
lthumb 7.87307 7.8752
rfemur 14.0979 -4.08312 27.5823
rtibia 8.52138
rfoot -19.2267 7.3725
rtoes 26.2416
lfemur -14.3703 -3.38378 -3.9628
ltibia 38.8886
lfoot -17.731 12.355
ltoes -8.50354
704
root -0.42909 16.9891 -18.1337 -205.888 106.597 -202.211
lowerback 4.01077 1.95352 4.80802
upperback 0.327086 2.84472 0.710195
thorax -1.71397 1.39247 -2.11086
lowerneck -19.9 -5.33348 -0.552855
upperneck 32.7869 -10.0344 8.12801
head 15.3744 -2.85523 1.67677
rclavicle 4.04278e-014 2.34566e-014
rhumerus -31.3797 16.2342 -85.526
rradius 64.6039
rwrist -1.89344
rhand -17.7514 -27.2541
rfingers 7.12502
rthumb 8.51027 -57.0626
lclavicle 4.04278e-014 2.34566e-014
lhumerus -59.5107 21.0814 49.6337
lradius 17.2871
lwrist -29.3249
lhand -18.5141 -22.316
lfingers 7.12502
lthumb 7.77413 7.52105
rfemur 14.4291 -3.63555 27.4426
rtibia 8.51062
rfoot -20.0797 7.28778
rtoes 26.761
lfemur -15.1218 -4.11747 -3.75557
ltibia 37.625
lfoot -17.731 12.355
ltoes -8.50354
705
root -0.331331 16.9804 -18.1408 -204.728 107.036 -201.165
lowerback 4.03261 1.97545 4.77347
upperback 0.332788 2.86913 0.561001
thorax -1.71251 1.40404 -2.24679
lowerneck -19.6479 -5.29393 -0.504218
upperneck 32.5071 -10.0147 8.28084
head 15.1932 -2.8436 1.7335
rclavicle -3.71355e-014 -1.07344e-014
rhumerus -30.6298 16.2215 -85.6069
rradius 64.6884
rwrist -2.50816
rhand -18.0223 -28.2438
rfingers 7.12502
rthumb 8.24879 -58.0628
lclavicle -3.71355e-014 -1.07344e-014
lhumerus -59.1875 20.9031 50.6567
lradius 17.4477
lwrist -27.797
lhand -18.6247 -22.7308
lfingers 7.12502
lthumb 7.66736 7.11019
rfemur 14.6904 -3.55757 27.1257
rtibia 8.42753
rfoot -20.3748 7.59194
rtoes 26.9
lfemur -15.9336 -4.86056 -3.51011
ltibia 36.5406
lfoot -17.731 12.355
ltoes -8.50354
706
root -0.230569 16.9706 -18.1484 -203.666 107.594 -200.201
lowerback 4.14287 1.98265 4.73457
upperback 0.285096 2.88195 0.468528
thorax -1.81959 1.40662 -2.32668
lowerneck -19.5476 -5.19787 -0.333263
upperneck 32.5927 -9.90152 8.18356
head 15.1853 -2.78773 1.68956
rclavicle -2.36554e-014 -6.36111e-015
rhumerus -30.2688 16.38 -85.6965
rradius 65.018
rwrist -3.14993
rhand -18.0173 -28.3029
rfingers 7.12502
rthumb 8.25362 -58.1217
lclavicle -2.36554e-014 -6.36111e-015
lhumerus -59.019 20.6414 51.8256
lradius 17.7277
lwrist -25.945
lhand -18.7858 -23.0286
lfingers 7.12502
lthumb 7.5119 6.81802
rfemur 14.8914 -3.28542 26.9111
rtibia 8.46655
rfoot -20.2316 7.95197
rtoes 26.7994
lfemur -16.6295 -5.57418 -3.12587
ltibia 35.5555
lfoot -17.731 12.355
ltoes -8.50354
